<svg xmlns="http://www.w3.org/2000/svg" width="256" height="256" viewBox="0 0 100 100"><rect width="100" height="100" rx="20" fill="#ffffff"></rect><path d="M36.93 34.37L24.73 68.55L22.34 68.55L35.72 31.45L38.33 31.45L51.71 68.55L49.32 68.55L37.11 34.37L36.93 34.37ZM28.11 56.68L28.11 54.58L45.93 54.58L45.93 56.68L28.11 56.68ZM64.10 53.50L59.75 57.68L59.72 54.51L60.30 54.51L74.21 40.73L77.08 40.73L64.32 53.40L64.10 53.50ZM60.04 68.55L57.83 68.55L57.83 31.45L60.04 31.45L60.04 68.55ZM77.66 68.55L74.84 68.55L63.10 53.71L64.70 52.25L77.66 68.55Z" fill="#070707"></path></svg>