<svg id="visual" viewBox="0 0 960 300" width="960" height="300" xmlns="http://www.w3.org/2000/svg" xmlns:xlink="http://www.w3.org/1999/xlink" version="1.1"><rect x="0" y="0" width="960" height="300" fill="#9ea0a2"></rect><path d="M0 233L10.7 221C21.3 209 42.7 185 64 171C85.3 157 106.7 153 128 159.3C149.3 165.7 170.7 182.3 192 189.2C213.3 196 234.7 193 256 194.8C277.3 196.7 298.7 203.3 320 204.7C341.3 206 362.7 202 384 194.2C405.3 186.3 426.7 174.7 448 177.3C469.3 180 490.7 197 512 191.8C533.3 186.7 554.7 159.3 576 150.2C597.3 141 618.7 150 640 159.8C661.3 169.7 682.7 180.3 704 191.8C725.3 203.3 746.7 215.7 768 220.8C789.3 226 810.7 224 832 223.7C853.3 223.3 874.7 224.7 896 219.8C917.3 215 938.7 204 949.3 198.5L960 193L960 0L949.3 0C938.7 0 917.3 0 896 0C874.7 0 853.3 0 832 0C810.7 0 789.3 0 768 0C746.7 0 725.3 0 704 0C682.7 0 661.3 0 640 0C618.7 0 597.3 0 576 0C554.7 0 533.3 0 512 0C490.7 0 469.3 0 448 0C426.7 0 405.3 0 384 0C362.7 0 341.3 0 320 0C298.7 0 277.3 0 256 0C234.7 0 213.3 0 192 0C170.7 0 149.3 0 128 0C106.7 0 85.3 0 64 0C42.7 0 21.3 0 10.7 0L0 0Z" fill="#8d939a"></path><path d="M0 134L10.7 138.2C21.3 142.3 42.7 150.7 64 144.3C85.3 138 106.7 117 128 114.7C149.3 112.3 170.7 128.7 192 138C213.3 147.3 234.7 149.7 256 150C277.3 150.3 298.7 148.7 320 139.2C341.3 129.7 362.7 112.3 384 113C405.3 113.7 426.7 132.3 448 133.2C469.3 134 490.7 117 512 111.7C533.3 106.3 554.7 112.7 576 124.7C597.3 136.7 618.7 154.3 640 151.5C661.3 148.7 682.7 125.3 704 122.2C725.3 119 746.7 136 768 148C789.3 160 810.7 167 832 157.8C853.3 148.7 874.7 123.3 896 121.7C917.3 120 938.7 142 949.3 153L960 164L960 0L949.3 0C938.7 0 917.3 0 896 0C874.7 0 853.3 0 832 0C810.7 0 789.3 0 768 0C746.7 0 725.3 0 704 0C682.7 0 661.3 0 640 0C618.7 0 597.3 0 576 0C554.7 0 533.3 0 512 0C490.7 0 469.3 0 448 0C426.7 0 405.3 0 384 0C362.7 0 341.3 0 320 0C298.7 0 277.3 0 256 0C234.7 0 213.3 0 192 0C170.7 0 149.3 0 128 0C106.7 0 85.3 0 64 0C42.7 0 21.3 0 10.7 0L0 0Z" fill="#b1b5ba"></path><path d="M0 117L10.7 109.2C21.3 101.3 42.7 85.7 64 87.2C85.3 88.7 106.7 107.3 128 109.5C149.3 111.7 170.7 97.3 192 89.7C213.3 82 234.7 81 256 81.8C277.3 82.7 298.7 85.3 320 93.2C341.3 101 362.7 114 384 118.3C405.3 122.7 426.7 118.3 448 111.2C469.3 104 490.7 94 512 85.5C533.3 77 554.7 70 576 68.3C597.3 66.7 618.7 70.3 640 76.8C661.3 83.3 682.7 92.7 704 91C725.3 89.3 746.7 76.7 768 79.5C789.3 82.3 810.7 100.7 832 100.3C853.3 100 874.7 81 896 74C917.3 67 938.7 72 949.3 74.5L960 77L960 0L949.3 0C938.7 0 917.3 0 896 0C874.7 0 853.3 0 832 0C810.7 0 789.3 0 768 0C746.7 0 725.3 0 704 0C682.7 0 661.3 0 640 0C618.7 0 597.3 0 576 0C554.7 0 533.3 0 512 0C490.7 0 469.3 0 448 0C426.7 0 405.3 0 384 0C362.7 0 341.3 0 320 0C298.7 0 277.3 0 256 0C234.7 0 213.3 0 192 0C170.7 0 149.3 0 128 0C106.7 0 85.3 0 64 0C42.7 0 21.3 0 10.7 0L0 0Z" fill="#d7d9dc"></path><path d="M0 49L10.7 52C21.3 55 42.7 61 64 62C85.3 63 106.7 59 128 51.3C149.3 43.7 170.7 32.3 192 34C213.3 35.7 234.7 50.3 256 53.2C277.3 56 298.7 47 320 42.7C341.3 38.3 362.7 38.7 384 40.8C405.3 43 426.7 47 448 46.5C469.3 46 490.7 41 512 46.7C533.3 52.3 554.7 68.7 576 66.8C597.3 65 618.7 45 640 38.5C661.3 32 682.7 39 704 42.8C725.3 46.7 746.7 47.3 768 49.3C789.3 51.3 810.7 54.7 832 56.2C853.3 57.7 874.7 57.3 896 59C917.3 60.7 938.7 64.3 949.3 66.2L960 68L960 0L949.3 0C938.7 0 917.3 0 896 0C874.7 0 853.3 0 832 0C810.7 0 789.3 0 768 0C746.7 0 725.3 0 704 0C682.7 0 661.3 0 640 0C618.7 0 597.3 0 576 0C554.7 0 533.3 0 512 0C490.7 0 469.3 0 448 0C426.7 0 405.3 0 384 0C362.7 0 341.3 0 320 0C298.7 0 277.3 0 256 0C234.7 0 213.3 0 192 0C170.7 0 149.3 0 128 0C106.7 0 85.3 0 64 0C42.7 0 21.3 0 10.7 0L0 0Z" fill="#fefefe"></path></svg>